<svg xmlns="http://www.w3.org/2000/svg" viewBox="0 0 549.94 439"><defs><style>.cls-1{fill:#b83d5d;}.cls-2{fill:#e3b5aa;}.cls-3{fill:#d78f97;}.cls-13,.cls-18,.cls-4,.cls-6,.cls-8{fill:none;}.cls-4{stroke:#c87e84;stroke-width:0.5px;}.cls-13,.cls-4,.cls-6,.cls-8{stroke-miterlimit:10;}.cls-5{fill:#c87e84;}.cls-6{stroke:#b83d5d;}.cls-7{fill:#36364f;}.cls-8{stroke:#fff;stroke-width:4px;}.cls-9{fill:#9a304f;}.cls-10{fill:#c33e5d;}.cls-11{fill:#eba154;}.cls-12{fill:#d9751f;opacity:0.5;}.cls-13{stroke:#dc831e;stroke-width:3px;}.cls-14{fill:#9bd1cc;}.cls-15{fill:#fff;}.cls-16{fill:#4b7195;}.cls-17{fill:#5a93a0;opacity:0.4;}</style></defs><g id="OBJECTS"><path class="cls-1" d="M377.2,122.26C374.75,175.91,322,217,282.51,219.51c-52.19,3.28-89.49-43.79-94.69-97.25C183.32,76,199.76,76.65,212,57.34,226.85,34,254.51,21,282.51,21,334.81,21,380.5,50.08,377.2,122.26Z" transform="translate(0 -4.68)"/><rect class="cls-2" x="245.82" y="209.82" width="73.39" height="91.88"/><path class="cls-2" d="M365,160.9c13.1-19.86,29.75-20.74,36.71,2.76s-16,42.83-34.69,35.7S365,160.9,365,160.9Z" transform="translate(0 -4.68)"/><path class="cls-3" d="M380.41,161.42c8.77-1.6,13.26,24.52-6,25.39l4-9.12-3.72-7.58Z" transform="translate(0 -4.68)"/><path class="cls-4" d="M371.56,190.39c11.21-11.95,3.12-20.28,3.12-20.28s10.67-21.89,14.95-5.11" transform="translate(0 -4.68)"/><path class="cls-2" d="M199.46,160.9c-13.09-19.86-29.75-20.74-36.71,2.76s16,42.83,34.7,35.7S199.46,160.9,199.46,160.9Z" transform="translate(0 -4.68)"/><path class="cls-3" d="M184,161.42c-8.77-1.6-13.26,24.52,6,25.39L186,177.69l3.71-7.58Z" transform="translate(0 -4.68)"/><path class="cls-4" d="M192.85,190.39c-11.21-11.95-3.12-20.28-3.12-20.28s-10.67-21.89-14.95-5.11" transform="translate(0 -4.68)"/><path class="cls-5" d="M319.21,216.53v34.18c-26.37,35.74-73.39,24.12-73.39,24.12l.82-58.3Z" transform="translate(0 -4.68)"/><path class="cls-2" d="M235.8,60.13h93.41a32.62,32.62,0,0,1,32.62,32.62v110a48.3,48.3,0,0,1-48.3,48.3H251.48a48.3,48.3,0,0,1-48.3-48.3v-110A32.62,32.62,0,0,1,235.8,60.13Z"/><path class="cls-6" d="M294.72,186.73a12.21,12.21,0,1,1-24.41,0" transform="translate(0 -4.68)"/><path class="cls-1" d="M211.56,68.36s-13.89-23,3.51-43.34C215.07,25,227.57,48.17,211.56,68.36Z" transform="translate(0 -4.68)"/><path class="cls-1" d="M218.62,62.89s-19.35,18.69-43,6.26C175.59,69.15,195.37,51.79,218.62,62.89Z" transform="translate(0 -4.68)"/><path class="cls-7" d="M251,158.26c0,6.56-2.79,11.88-6.24,11.88s-6.24-5.32-6.24-11.88,2.79-11.88,6.24-11.88S251,151.7,251,158.26Z" transform="translate(0 -4.68)"/><circle class="cls-8" cx="241.54" cy="157.38" r="31.9" transform="translate(26.34 344.53) rotate(-74.8)"/><path class="cls-7" d="M326.49,158.26c0,6.56-2.79,11.88-6.24,11.88S314,164.82,314,158.26s2.8-11.88,6.24-11.88S326.49,151.7,326.49,158.26Z" transform="translate(0 -4.68)"/><circle class="cls-8" cx="323.48" cy="157.38" r="31.9" transform="translate(85.47 422.43) rotate(-74.52)"/><path class="cls-1" d="M213,87.45s50.4-26.56,83.89-7.31,37.25,59,70.32,48.73c0,0,25.12-11.06-2.51-49.57s-46.53-46-82.49-37.67S222.85,56.51,213,87.45Z" transform="translate(0 -4.68)"/><path class="cls-9" d="M211.09,87.07S227.72,65,251,59.18s49,22.81,49,22.81S240.39,73.49,211.09,87.07Z" transform="translate(0 -4.68)"/><path class="cls-1" d="M203.3,114.82s5.62,40.93,0,65.92C203.3,180.74,195.1,117.26,203.3,114.82Z" transform="translate(0 -4.68)"/><path class="cls-1" d="M361.27,114.82s-5.62,40.93,0,65.92C361.27,180.74,369.47,117.26,361.27,114.82Z" transform="translate(0 -4.68)"/><path class="cls-1" d="M259,111.62c-8.66-4.14-24.05-8.69-38.32,1.47a3.32,3.32,0,0,0,1.41,6,106.62,106.62,0,0,0,18.58,1.56c5.77,0,12.61-1.45,17.72-2.77A3.33,3.33,0,0,0,259,111.62Z" transform="translate(0 -4.68)"/><path class="cls-1" d="M342.58,111.62c-8.65-4.14-24.05-8.69-38.31,1.47a3.32,3.32,0,0,0,1.41,6,106.4,106.4,0,0,0,18.57,1.56c5.78,0,12.61-1.45,17.72-2.77A3.33,3.33,0,0,0,342.58,111.62Z" transform="translate(0 -4.68)"/><path class="cls-10" d="M309.35,215.39a26.8,26.8,0,0,1-3.13,4.53c-4.24,5.11-11.44,10-23.78,10.24l0,.05-.9,0,0-.07c-11.57-.23-18.69-4.58-23-9.39a25.7,25.7,0,0,1-3.84-5.43,27,27,0,0,1-2.59-7l59.9.11A24.4,24.4,0,0,1,309.35,215.39Z" transform="translate(0 -4.68)"/><path class="cls-7" d="M309.35,215.39a26.8,26.8,0,0,1-3.13,4.53c-13.75-6-30.29-7.31-47.73.81a25.7,25.7,0,0,1-3.84-5.43,27,27,0,0,1-2.59-7l59.9.11A24.4,24.4,0,0,1,309.35,215.39Z" transform="translate(0 -4.68)"/><path class="cls-11" d="M510.48,443.68H47.54c15.71-28.18,32.84-56.45,47.17-74.28,23.81-29.63,80.08-50.76,118.3-62.3l4.1-1.22,3.95-1.15,3.77-1.07,3.58-1,5-1.34,1.55-.41c4.42-1.15,8.11-2.06,10.86-2.72l.4-.09.68-.16.62-.15.59-.14.17,0,.54-.12.15,0,.48-.11.13,0,.65-.16.1,0,.31-.07.79-.17H313.1s2.21.48,6.11,1.41c1.73.41,3.78.92,6.13,1.51l4.07,1.05,3,.79,1.57.42,3.27.89,5.23,1.47c1.8.52,3.67,1.06,5.58,1.63h0c38.19,11.28,95.28,34.44,121.76,63.32a141,141,0,0,1,16.4,22.51C495.49,407.33,503.61,425.53,510.48,443.68Z" transform="translate(0 -4.68)"/><path class="cls-12" d="M510.48,443.68H416.33c24.59-17.06,41-33.16,49.65-42.51a28.49,28.49,0,0,1,20.1-9.25h.13C495.49,407.33,503.61,425.53,510.48,443.68Z" transform="translate(0 -4.68)"/><line class="cls-8" x1="274.09" y1="158.12" x2="290.94" y2="158.12"/><path class="cls-2" d="M348.05,306.07c-66.47,73.14-135,1-135,1,22.28-6.74,38.41-10.2,38.41-10.2h61.69S327.59,300,348.05,306.07Z" transform="translate(0 -4.68)"/><path class="cls-13" d="M209.83,338.85s82.42,56.29,138.22-2.74" transform="translate(0 -4.68)"/><path class="cls-1" d="M211.1,53C229.61-24.83,415-16.27,380.52,135.18c-10.34,45.36-85.9-103.13-151.12-66.7a12.83,12.83,0,0,1-15-1.79h0C210.63,63.18,209.91,58,211.1,53Z" transform="translate(0 -4.68)"/><path class="cls-14" d="M362.47,443.18l-.15,0a10.6,10.6,0,0,1-1.14.06H60.42a12.66,12.66,0,0,1-12.64-12.65l0-.14L.91,298.14a15.53,15.53,0,0,1,14.64-20.72H210.82a15.52,15.52,0,0,1,14.65,10.35L276,430.36l.08.25h85.44C369.31,430.61,370.18,442.34,362.47,443.18Z" transform="translate(0 -4.68)"/><ellipse class="cls-15" cx="116.76" cy="364.67" rx="22.64" ry="27.49" transform="translate(-112.25 53.12) rotate(-18.98)"/><path class="cls-16" d="M361.47,430.61H276l-.08-.25L225.47,287.77a15.53,15.53,0,0,0-14.65-10.35H204.3s14.58.95,18.23,14S276,443,276,443l3.68.27h81.47c.39,0,.78,0,1.15,0C370.19,442.49,369.36,430.61,361.47,430.61Z" transform="translate(0 -4.68)"/><path class="cls-17" d="M362.47,443.18l-.15,0a10.6,10.6,0,0,1-1.14.06H60.42a12.6,12.6,0,0,1-9.88-4.77c177.78,15.27,160.28-161.07,160.28-161.07a15.52,15.52,0,0,1,14.65,10.35L276,430.36l.08.25h84.1C361,434.77,361.83,439,362.47,443.18Z" transform="translate(0 -4.68)"/><polyline class="cls-18" points="549.94 439 510.48 439 416.33 439 47.54 439 0.12 439"/></g></svg>